<?xml version="1.0" encoding="utf-8"?>
<!-- Generator: Adobe Illustrator 22.0.1, SVG Export Plug-In . SVG Version: 6.00 Build 0)  -->
<svg version="1.1" id="Layer_1" xmlns="http://www.w3.org/2000/svg" xmlns:xlink="http://www.w3.org/1999/xlink" x="0px" y="0px"
	 viewBox="0 0 249.5 228" style="enable-background:new 0 0 249.5 228;" xml:space="preserve">
<style type="text/css">
	.st0{fill:#191D32;stroke:#000000;stroke-width:13;stroke-miterlimit:10;}
	.st1{fill:#191D32;}
</style>
<g>
	<g>
		<path class="st0" d="M6.5,70.9"/>
		<path class="st1" d="M67.5,0.8L0.8,67.5C0.3,68,0,68.7,0,69.4v156c0,1.5,1.2,2.7,2.7,2.7h244.1c1.5,0,2.7-1.2,2.7-2.7V2.7
			c0-1.5-1.2-2.7-2.7-2.7H69.4C68.7,0,68,0.3,67.5,0.8z M64.5,27.2v35.2c0,1.1-0.9,2.1-2.1,2.1H27.2c-1.8,0-2.7-2.2-1.5-3.5
			l35.2-35.2C62.2,24.4,64.5,25.3,64.5,27.2z M233.8,215H15.7c-1.5,0-2.7-1.2-2.7-2.7V80.1c0-1.5,1.2-2.7,2.7-2.7h59.1
			c1.5,0,2.7-1.2,2.7-2.7V15.7c0-1.5,1.2-2.7,2.7-2.7h153.6c1.5,0,2.7,1.2,2.7,2.7v196.6C236.5,213.8,235.3,215,233.8,215z"/>
	</g>
	<g>
		<path class="st1" d="M119,143.4c0.1,0.7,0.2,1.7,0,2.9c-0.1,1.2-0.2,2.1-0.3,2.8c-0.1,0.7-0.3,1.3-0.4,1.9
			c-0.1,0.6-0.3,1.2-0.5,1.7c-1.4,3.3-3.6,6.1-6.5,8.2c-1.1,0.8-2.3,1.5-3.6,2.1c-1.3,0.6-2.7,1.1-4.2,1.5c-0.7,0.3-1.5,0.5-2.3,0.5
			s-1.6,0.2-2.3,0.3c-0.3,0.1-0.7,0.1-1,0.1s-0.6,0-1,0.1c-0.3,0.1-0.5,0.1-0.8,0c-0.3-0.1-0.6,0-1,0.1c-0.3,0.1-0.5,0.1-0.9,0
			c-0.3,0-0.6,0-0.9,0H64.2c-1.1,0-2.1-0.1-2.9-0.2c-0.8-0.1-1.3-0.5-1.6-1.3c-0.2-0.5-0.3-1.4-0.3-2.5c0-1.1,0-2,0-2.8v-58.7
			c0-0.8,0-1.7,0-2.5c0-0.9,0.1-1.6,0.5-2.2c0.3-0.5,0.8-0.8,1.5-1c0.1-0.1,0.3-0.1,0.4,0c0.1,0,0.3,0,0.4,0H92c0.5,0,0.9,0,1.4,0
			c0.5,0,0.9,0,1.3,0c0.3,0.1,0.7,0.2,1,0.1c0.3-0.1,0.7-0.1,1,0h0.6c0.4,0.1,0.8,0.2,1.3,0.2c0.4,0,0.9,0,1.4,0.1
			c0.5,0.1,1,0.2,1.5,0.3s1,0.2,1.5,0.3c1.3,0.5,2.5,0.9,3.6,1.3c1.1,0.4,2.2,1,3.1,1.7c1.3,0.9,2.4,2.1,3.3,3.5
			c0.9,1.4,1.6,3,2.1,4.8c0.1,0.5,0.2,0.9,0.3,1.4c0,0.5,0.1,1,0.3,1.5c0.1,0.3,0.1,0.5,0.1,0.8c0,0.3,0,0.5,0,0.8
			c0.1,0.2,0.1,0.5,0,0.8c0,0.3-0.1,0.5-0.2,0.7v0.9c0,0.2,0,0.4,0,0.7c0,0.3,0,0.5,0,0.6c-0.1,0.5-0.2,0.9-0.3,1.3
			c0,0.4-0.1,0.7-0.3,1.1c-0.9,2.4-2,4.4-3.4,5.9c-0.5,0.5-1,0.9-1.5,1.2c-0.5,0.3-1,0.8-1.4,1.3c-0.1,0.1-0.3,0.3-0.5,0.5
			c-0.2,0.2-0.2,0.5,0,0.9c0.1,0.5,0.6,1,1.3,1.3c0.7,0.4,1.4,0.7,1.9,1c1.8,1.2,3.3,2.6,4.4,4.2c1.1,1.5,1.9,3.3,2.5,5.4
			c0.2,0.5,0.3,1.1,0.4,1.6c0.1,0.6,0.2,1.1,0.3,1.7V143.4z M75.5,107.6c-0.3,0.5-0.5,1-0.5,1.8s0,1.4,0,2.2v5.4c0,0.5,0,1,0,1.5
			c0,0.5,0,0.9,0,1.3v1c0.1,0.4,0.2,0.8,0.3,1c0.1,0.3,0.2,0.6,0.3,0.9c0.3,0.3,0.7,0.6,1.3,0.7c0.6,0.1,1.2,0.2,1.9,0.3
			c0.7,0,1.4,0,2.2,0c0.7,0,1.4-0.1,2-0.1c1,0,2,0,3.1,0.1c1.1,0,2.2,0,3.3,0c1.1,0,2.2,0,3.2-0.2c1-0.1,1.9-0.3,2.6-0.5
			c2-0.7,3.5-1.8,4.5-3.5c0.5-0.9,0.8-2,0.9-3.4c0.1-2.3-0.2-4-1-5.3s-2-2.3-3.5-3c-0.4-0.1-0.8-0.3-1.3-0.4c-0.5-0.1-1-0.2-1.5-0.3
			c-0.3-0.1-0.7-0.1-1.2-0.1c-0.8-0.2-1.7-0.3-2.8-0.3c-1,0-2,0-3,0h-8.5c-0.1,0.1-0.3,0.1-0.5,0.1c-0.2,0-0.3,0-0.4,0.1
			C76.2,106.9,75.7,107.2,75.5,107.6z M103.5,145c0.1-0.9,0.1-1.9-0.2-3c-0.2-1.1-0.5-1.9-0.8-2.4c-0.9-2.4-2.8-4.1-5.5-5
			c-1.1-0.3-2.4-0.5-3.8-0.6c-1.4-0.1-2.8-0.1-4.3-0.1H77.8c-0.1,0.1-0.3,0.2-0.3,0.2c-0.1,0-0.2,0-0.4,0c-0.8,0.2-1.3,0.5-1.6,1
			c-0.3,0.5-0.5,1.2-0.5,2c0,0.8,0,1.6,0,2.3v8.9c0,0.8,0,1.6,0,2.5c0,0.8,0.2,1.5,0.5,2c0.3,0.3,0.7,0.6,1.3,0.8
			c0.6,0.2,1.3,0.3,2,0.3c0.8,0,1.5,0,2.3,0c0.8,0,1.5,0,2.1,0c2,0,3.9,0,5.8,0c1.9,0,3.6-0.1,5.3-0.3c1.7-0.2,3.2-0.6,4.5-1.2
			c1.3-0.6,2.3-1.5,3.1-2.7c0.3-0.5,0.6-1.1,0.8-1.8c0.2-0.7,0.4-1.4,0.6-2.2V145z"/>
		<path class="st1" d="M160.4,92.8c7-0.1,12.8,1.1,17.3,3.6c4.5,2.5,8.1,5.9,10.8,10.1c0.7,1.1,1.3,2.3,1.8,3.5
			c0.5,1.2,0.9,2.4,1.3,3.8c0.1,0.5,0.3,1,0.4,1.6c0.1,0.6,0.1,1.2-0.1,1.7c-0.1,0.4-0.4,0.7-0.8,0.8c-0.4,0.1-0.8,0.2-1.3,0.4h-0.8
			c-0.4,0.1-0.9,0.2-1.4,0.1c-0.5,0-1,0-1.4,0c-0.6,0-1.3,0-2.2,0c-0.8,0-1.7,0-2.5,0c-0.8,0-1.5-0.1-2.2-0.2
			c-0.7-0.1-1.2-0.3-1.5-0.4c-0.5-0.5-0.9-1.1-1.2-1.9c-0.3-0.8-0.6-1.5-1-2.1c-1.3-2.2-2.9-3.9-5-5.2c-1.4-0.9-3-1.6-4.7-2.1
			c-1.1-0.4-2.5-0.6-4.3-0.6s-3.2,0.2-4.5,0.5c-0.5,0.1-1,0.3-1.5,0.3c-0.4,0.1-0.9,0.3-1.3,0.5c-4.5,1.9-7.7,5.1-9.6,9.6
			c-0.3,0.8-0.6,1.6-0.9,2.5c-0.3,0.9-0.6,1.8-0.9,2.7c-0.1,0.5-0.1,0.9-0.2,1.3c-0.1,0.4-0.1,0.8-0.2,1.3c-0.1,0.4-0.2,0.8-0.2,1.3
			c0,0.4,0,0.9-0.2,1.3c-0.1,0.5-0.2,1.1-0.1,1.7c0,0.6,0,1.1,0,1.6c0,0.3,0,0.5,0,0.8c0,0.3,0,0.5,0,0.8v0.9c0.1,0.3,0.2,0.7,0.2,1
			c0,0.3,0,0.7,0.1,1c0,0.4,0.1,0.9,0.2,1.6c0.1,0.7,0.3,1.4,0.4,2c0.1,0.6,0.3,1.3,0.5,1.8c0.9,2.8,2.1,5.2,3.6,7.2
			c1.5,2,3.4,3.6,5.8,4.8c0.7,0.3,1.5,0.6,2.3,0.9c0.8,0.2,1.7,0.5,2.6,0.8c0.3,0.1,0.6,0.1,1,0.1c0.3,0,0.6,0.1,0.9,0.1h0.8
			c0.3,0.1,0.8,0.2,1.3,0.1c0.5,0,1-0.1,1.3-0.1c0.4,0,0.7,0,0.9-0.1c0.8-0.1,1.5-0.3,2.3-0.4c0.7-0.1,1.4-0.4,2-0.7
			c1.5-0.7,2.8-1.5,4-2.7c1.1-1.1,2.1-2.3,2.9-3.8c0.4-0.7,0.7-1.4,1-2.2c0.3-0.8,0.6-1.6,0.9-2.4c0.2-0.7,0.4-1.4,0.6-2
			c0.2-0.6,0.6-1.1,1.3-1.4c0.4-0.1,0.9-0.2,1.5-0.2c0.6,0,1.2,0,1.7,0h6.1c0.6,0,1.2,0,1.8,0c0.6,0,1.2,0.1,1.5,0.4
			c0.5,0.3,0.7,0.9,0.8,1.6c0,0.7,0,1.4-0.3,2.1l-0.6,2.7c-0.3,1-0.7,2-1,2.9c-0.3,0.9-0.7,1.8-1.1,2.7c-0.3,0.5-0.6,1-0.8,1.5
			c-0.2,0.5-0.5,1-0.8,1.5c-3.7,5.7-9,9.7-16,12c-0.7,0.3-1.5,0.5-2.2,0.6c-0.7,0.1-1.5,0.3-2.2,0.4c-0.3,0.1-0.7,0.2-1,0.2
			c-0.3,0-0.6,0-1,0.1c-0.5,0-0.9,0-1.3,0c-0.4,0-0.9,0.1-1.4,0.2h-1.6c-0.6,0-1.2,0-1.8,0c-0.6,0-1.2-0.1-1.7-0.2
			c-0.2-0.1-0.5-0.1-1-0.1c-0.5-0.1-0.9-0.1-1.4-0.2c-0.5-0.1-1-0.1-1.5-0.2c-0.7-0.2-1.3-0.4-2-0.5c-0.6-0.1-1.3-0.3-1.9-0.5
			c-0.6-0.2-1.2-0.4-1.8-0.6c-0.6-0.2-1.2-0.5-1.7-0.8c-4-1.7-7.4-4.1-10.2-7c-2.8-2.9-5-6.4-6.8-10.4c-0.4-1-0.7-2-1-3
			c-0.3-1-0.6-2-0.9-3.1c-0.1-0.3-0.2-0.6-0.2-0.8c0-0.2,0-0.5-0.1-0.8c-0.1-0.6-0.2-1.2-0.3-1.9c-0.1-0.7-0.2-1.3-0.3-1.9
			c-0.1-0.3-0.2-0.6-0.2-0.8c0-0.2,0-0.5,0-0.8v-1.9c-0.1-0.3-0.2-0.8-0.2-1.5c0-0.7,0.1-1.2,0.2-1.5c0.1-0.2,0.1-0.4,0-0.6
			c0-0.2,0-0.4,0-0.5v-0.9c0.1-0.5,0.2-1.1,0.3-1.7c0-0.6,0.1-1.2,0.2-1.8c0.1-0.5,0.2-1,0.3-1.5c0.1-0.5,0.2-1,0.3-1.5
			c0.3-0.9,0.5-1.9,0.7-2.8c0.2-0.9,0.5-1.8,0.8-2.6c0.3-0.9,0.7-1.7,1-2.6c0.4-0.9,0.8-1.7,1.3-2.4c1.1-1.9,2.2-3.5,3.3-5
			c0.3-0.5,0.7-0.9,1.1-1.3c0.4-0.4,0.8-0.8,1.2-1.2c1.7-1.7,3.4-3.1,5.3-4.3c1.8-1.2,3.9-2.2,6.3-3.1c0.8-0.3,1.6-0.6,2.5-0.9
			c0.9-0.2,1.8-0.4,2.7-0.6c0.4-0.1,0.8-0.2,1.2-0.2c0.4,0,0.8-0.1,1.1-0.2c0.5-0.1,1-0.1,1.5-0.1c0.5,0,1-0.1,1.5-0.2
			c0.1-0.1,0.3-0.1,0.5,0C160.1,92.9,160.2,92.9,160.4,92.8z"/>
	</g>
</g>
</svg>
