<?xml version="1.0" encoding="utf-8"?>
<!-- Generator: Adobe Illustrator 22.0.1, SVG Export Plug-In . SVG Version: 6.00 Build 0)  -->
<svg version="1.1" id="Layer_1" xmlns="http://www.w3.org/2000/svg" xmlns:xlink="http://www.w3.org/1999/xlink" x="0px" y="0px"
	 viewBox="0 0 607.5 278" style="enable-background:new 0 0 607.5 278;" xml:space="preserve">
<style type="text/css">
	.st0{fill:#191D32;}
	.st1{fill:#191D32;stroke:#000000;stroke-width:13;stroke-miterlimit:10;}
</style>
<g>
	<g>
		<path class="st0" d="M101.4,134.6c0.1,0.6,0.1,1.4,0,2.3s-0.2,1.7-0.3,2.2c-0.1,0.5-0.2,1-0.3,1.5c-0.1,0.5-0.2,0.9-0.4,1.4
			c-1.1,2.7-2.9,4.9-5.2,6.6c-0.9,0.6-1.9,1.2-2.9,1.6c-1,0.5-2.1,0.9-3.3,1.2c-0.6,0.2-1.2,0.4-1.8,0.4s-1.3,0.2-1.8,0.3
			c-0.3,0.1-0.5,0.1-0.8,0.1c-0.2,0-0.5,0-0.8,0.1c-0.2,0.1-0.4,0.1-0.7,0c-0.2-0.1-0.5,0-0.8,0.1c-0.2,0.1-0.4,0.1-0.7,0
			c-0.2,0-0.5,0-0.8,0H57.6c-0.9,0-1.7,0-2.3-0.1c-0.6-0.1-1.1-0.4-1.3-1.1c-0.2-0.4-0.2-1.1-0.2-2c0-0.9,0-1.6,0-2.2v-47
			c0-0.6,0-1.3,0-2c0-0.7,0.1-1.3,0.4-1.7c0.2-0.4,0.6-0.6,1.2-0.8c0.1-0.1,0.2-0.1,0.3,0c0.1,0,0.2,0,0.3,0h23.8c0.4,0,0.7,0,1.1,0
			c0.4,0,0.7,0,1,0c0.3,0.1,0.5,0.1,0.8,0.1c0.3-0.1,0.5-0.1,0.8,0H84c0.3,0.1,0.7,0.1,1,0.1c0.3,0,0.7,0,1.1,0.1
			c0.4,0.1,0.8,0.2,1.2,0.2c0.4,0.1,0.8,0.1,1.2,0.2c1,0.4,2,0.7,2.9,1.1c0.9,0.3,1.7,0.8,2.5,1.3c1.1,0.7,1.9,1.7,2.6,2.8
			c0.7,1.1,1.3,2.4,1.7,3.8c0.1,0.4,0.2,0.7,0.2,1.1c0,0.4,0.1,0.8,0.2,1.2c0.1,0.2,0.1,0.4,0,0.6c0,0.2,0,0.4,0,0.6
			c0.1,0.2,0.1,0.4,0,0.6c0,0.2-0.1,0.4-0.1,0.5v0.7c0,0.2,0,0.3,0,0.6c0,0.2,0,0.4,0,0.5c-0.1,0.4-0.2,0.7-0.2,1
			c0,0.3-0.1,0.6-0.2,0.8c-0.7,1.9-1.6,3.5-2.7,4.7c-0.4,0.4-0.8,0.7-1.2,1c-0.4,0.3-0.8,0.6-1.1,1c-0.1,0.1-0.2,0.3-0.4,0.4
			c-0.1,0.2-0.1,0.4,0,0.7c0.1,0.4,0.5,0.8,1,1.1c0.6,0.3,1.1,0.6,1.5,0.8c1.4,1,2.6,2.1,3.5,3.4c0.9,1.2,1.5,2.7,2,4.3
			c0.2,0.4,0.3,0.9,0.3,1.3c0.1,0.5,0.1,0.9,0.2,1.3V134.6z M66.6,105.9c-0.3,0.4-0.4,0.8-0.4,1.4s0,1.1,0,1.7v4.3
			c0,0.4,0,0.8,0,1.2c0,0.4,0,0.7,0,1v0.8c0.1,0.3,0.2,0.6,0.2,0.8c0.1,0.2,0.1,0.5,0.2,0.7c0.2,0.3,0.5,0.5,1,0.6
			c0.5,0.1,1,0.2,1.5,0.2c0.6,0,1.1,0,1.7,0c0.6,0,1.1,0,1.6,0c0.8,0,1.6,0,2.5,0c0.9,0,1.8,0,2.6,0c0.9,0,1.7,0,2.5-0.1
			s1.5-0.2,2.1-0.4c1.6-0.5,2.8-1.5,3.6-2.8c0.4-0.7,0.6-1.6,0.7-2.7c0.1-1.8-0.2-3.2-0.8-4.3c-0.6-1-1.6-1.9-2.8-2.4
			c-0.3-0.1-0.7-0.2-1-0.3s-0.8-0.2-1.2-0.3c-0.2-0.1-0.5-0.1-1-0.1c-0.6-0.2-1.4-0.2-2.2-0.2c-0.8,0-1.6,0-2.4,0h-6.8
			c-0.1,0.1-0.2,0.1-0.4,0.1c-0.1,0-0.3,0-0.4,0.1C67.2,105.4,66.8,105.6,66.6,105.9z M89,135.9c0.1-0.7,0.1-1.5-0.1-2.4
			c-0.2-0.9-0.4-1.5-0.6-1.9c-0.7-1.9-2.2-3.3-4.4-4c-0.9-0.3-1.9-0.4-3-0.5c-1.1-0.1-2.2-0.1-3.4-0.1h-9c-0.1,0.1-0.2,0.1-0.3,0.1
			c-0.1,0-0.2,0-0.3,0c-0.6,0.2-1.1,0.4-1.3,0.8c-0.3,0.4-0.4,1-0.4,1.6c0,0.7,0,1.3,0,1.9v7.1c0,0.6,0,1.3,0,2
			c0,0.7,0.2,1.2,0.4,1.6c0.2,0.3,0.6,0.5,1,0.6c0.5,0.1,1,0.2,1.6,0.2c0.6,0,1.2,0,1.9,0c0.6,0,1.2,0,1.7,0c1.6,0,3.1,0,4.6,0
			c1.5,0,2.9-0.1,4.2-0.2c1.3-0.2,2.5-0.5,3.6-1c1-0.5,1.9-1.2,2.5-2.1c0.3-0.4,0.5-0.9,0.6-1.5s0.3-1.1,0.5-1.7V135.9z"/>
		<path class="st0" d="M150.1,130.2c0.1,0.3,0.2,0.8,0.2,1.4c0,0.6-0.1,1-0.2,1.4v0.8c-0.1,0.4-0.1,0.9-0.1,1.3c0,0.4,0,0.9-0.1,1.3
			c-0.1,0.4-0.2,0.7-0.2,1c-0.1,0.3-0.1,0.7-0.2,1c-0.2,0.6-0.4,1.2-0.6,1.8c-0.2,0.6-0.4,1.2-0.6,1.7c-1.1,2.6-2.6,4.6-4.4,6.2
			c-1.8,1.6-4,2.9-6.6,4c-0.6,0.3-1.3,0.5-2,0.6c-0.7,0.1-1.3,0.3-2,0.4c-0.3,0.1-0.6,0.2-0.9,0.2s-0.6,0-0.9,0.1
			c-0.2,0-0.3,0-0.5,0c-0.2,0-0.4,0-0.5,0c-0.3,0.1-0.7,0.1-1.3,0.1c-0.6,0-1,0-1.4-0.1h-0.8c-0.3-0.1-0.5-0.1-0.8,0
			c-0.3,0-0.6,0-0.8-0.1c-0.2-0.1-0.4-0.1-0.6-0.1c-0.2,0-0.4,0-0.7-0.1c-0.5-0.2-1.1-0.3-1.6-0.4c-0.5-0.1-1-0.3-1.5-0.5
			c-0.6-0.2-1.2-0.4-1.8-0.6c-0.6-0.2-1.1-0.5-1.7-0.8c-1.9-1.1-3.5-2.4-4.8-3.9c-1.3-1.5-2.5-3.3-3.4-5.4c-0.3-0.5-0.5-1-0.6-1.5
			c-0.1-0.5-0.3-1.1-0.4-1.7c-0.1-0.3-0.2-0.5-0.2-0.7c0-0.2-0.1-0.5-0.2-0.7c-0.1-0.4-0.2-0.9-0.2-1.3c0-0.5-0.1-0.9-0.2-1.3
			c-0.1-0.3-0.1-0.5-0.1-0.7c0-0.2,0-0.5,0-0.7c-0.1-0.3-0.1-0.8-0.1-1.4c0-0.6,0.1-1,0.2-1.4v-0.6c0.1-0.3,0.1-0.5,0-0.8
			c0-0.3,0-0.6,0.1-0.8c0.1-0.3,0.1-0.5,0.1-0.8c0-0.2,0.1-0.5,0.2-0.8c0.2-0.7,0.4-1.4,0.6-2c0.2-0.7,0.4-1.3,0.6-2
			c1-2.2,2.1-4,3.4-5.5c1.3-1.5,3-2.8,4.9-4c0.5-0.3,1.1-0.5,1.7-0.7c0.6-0.2,1.2-0.5,1.8-0.7c0.7-0.3,1.4-0.5,2.2-0.6
			c0.7-0.1,1.5-0.3,2.3-0.5c0.4-0.1,0.8-0.1,1.2-0.1c0.4,0,0.7,0,1.1-0.1c3.1-0.1,5.8,0.3,8,1c2.3,0.7,4.3,1.7,6,2.9
			c0.6,0.4,1.2,0.9,1.8,1.4c0.6,0.5,1.1,1.1,1.6,1.6c0.4,0.5,0.8,1.1,1.2,1.6c0.3,0.5,0.7,1.1,1.1,1.7c0.4,0.6,0.7,1.2,0.9,1.9
			c0.2,0.7,0.5,1.4,0.7,2.1c0.2,0.4,0.3,0.9,0.4,1.4c0.1,0.5,0.2,1,0.3,1.4c0.1,0.2,0.1,0.4,0.1,0.6c0,0.2,0,0.4,0.1,0.6
			c0.1,0.3,0.1,0.6,0.1,0.9C150,129.6,150,129.9,150.1,130.2z M138.9,133.1c0.1-0.3,0.1-0.7,0.1-1.2c0-0.5,0-0.9-0.1-1.2v-0.6
			c-0.1-0.3-0.2-0.6-0.2-0.9c0-0.3,0-0.6-0.1-0.9c0-0.2,0-0.4-0.1-0.5c-0.1-0.4-0.2-0.9-0.3-1.3c-0.1-0.5-0.2-0.9-0.4-1.3
			c-0.6-1.4-1.3-2.6-2.1-3.6c-0.8-1-1.9-1.8-3.2-2.4c-0.3-0.1-0.6-0.2-1-0.3c-0.3-0.1-0.7-0.2-1-0.3c-0.4-0.1-0.9-0.1-1.4-0.1
			c-0.5,0-1,0-1.4,0c-0.2,0.1-0.3,0.1-0.6,0.1c-0.2,0-0.4,0-0.6,0c-0.4,0.1-0.7,0.2-1.1,0.3c-0.3,0.1-0.7,0.2-0.9,0.4
			c-1.3,0.6-2.4,1.4-3.2,2.5c-0.8,1.1-1.5,2.4-2,3.8c-0.2,0.5-0.3,1.1-0.4,1.7c-0.1,0.6-0.2,1.2-0.3,1.8c-0.1,0.3-0.1,0.5-0.1,0.8
			c0,0.3,0,0.5,0,0.8c-0.1,0.4-0.1,0.9-0.1,1.7c0,0.7,0.1,1.3,0.2,1.7v0.7c0.1,0.4,0.2,0.8,0.2,1.2c0.1,0.4,0.1,0.8,0.2,1.2
			c0.5,1.6,1.1,2.9,1.7,3.9c0.6,1,1.6,1.9,2.9,2.7c0.4,0.3,0.8,0.5,1.2,0.6s0.9,0.3,1.4,0.4c0.2,0.1,0.4,0.1,0.6,0
			c0.2,0,0.3,0,0.6,0c0.2,0.1,0.4,0.1,0.7,0.1c0.2,0,0.5,0,0.7,0h0.6c0.4-0.1,0.9-0.2,1.3-0.2c0.4-0.1,0.8-0.2,1.2-0.3
			c1.4-0.5,2.5-1.3,3.4-2.2c0.9-0.9,1.6-2,2.2-3.4c0.2-0.5,0.4-1.1,0.5-1.6c0.1-0.5,0.2-1.1,0.4-1.7c0.1-0.2,0.1-0.4,0.1-0.6
			c0-0.2,0-0.4,0.1-0.6c0-0.3,0-0.5,0-0.8C138.8,133.6,138.9,133.3,138.9,133.1z"/>
		<path class="st0" d="M199,130.2c0.1,0.3,0.2,0.8,0.2,1.4c0,0.6-0.1,1-0.2,1.4v0.8c-0.1,0.4-0.1,0.9-0.1,1.3c0,0.4,0,0.9-0.1,1.3
			c-0.1,0.4-0.2,0.7-0.2,1c-0.1,0.3-0.1,0.7-0.2,1c-0.2,0.6-0.4,1.2-0.6,1.8c-0.2,0.6-0.4,1.2-0.6,1.7c-1.1,2.6-2.6,4.6-4.4,6.2
			c-1.8,1.6-4,2.9-6.6,4c-0.6,0.3-1.3,0.5-2,0.6c-0.7,0.1-1.3,0.3-2,0.4c-0.3,0.1-0.6,0.2-0.9,0.2s-0.6,0-0.9,0.1
			c-0.2,0-0.3,0-0.5,0c-0.2,0-0.4,0-0.5,0c-0.3,0.1-0.7,0.1-1.3,0.1c-0.6,0-1,0-1.4-0.1H176c-0.3-0.1-0.5-0.1-0.8,0
			c-0.3,0-0.6,0-0.8-0.1c-0.2-0.1-0.4-0.1-0.6-0.1c-0.2,0-0.4,0-0.7-0.1c-0.5-0.2-1.1-0.3-1.6-0.4c-0.5-0.1-1-0.3-1.5-0.5
			c-0.6-0.2-1.2-0.4-1.8-0.6c-0.6-0.2-1.1-0.5-1.7-0.8c-1.9-1.1-3.5-2.4-4.8-3.9c-1.3-1.5-2.5-3.3-3.4-5.4c-0.3-0.5-0.5-1-0.6-1.5
			c-0.1-0.5-0.3-1.1-0.4-1.7c-0.1-0.3-0.2-0.5-0.2-0.7c0-0.2-0.1-0.5-0.2-0.7c-0.1-0.4-0.2-0.9-0.2-1.3c0-0.5-0.1-0.9-0.2-1.3
			c-0.1-0.3-0.1-0.5-0.1-0.7c0-0.2,0-0.5,0-0.7c-0.1-0.3-0.1-0.8-0.1-1.4c0-0.6,0.1-1,0.2-1.4v-0.6c0.1-0.3,0.1-0.5,0-0.8
			c0-0.3,0-0.6,0.1-0.8c0.1-0.3,0.1-0.5,0.1-0.8c0-0.2,0.1-0.5,0.2-0.8c0.2-0.7,0.4-1.4,0.6-2c0.2-0.7,0.4-1.3,0.6-2
			c1-2.2,2.1-4,3.4-5.5c1.3-1.5,3-2.8,4.9-4c0.5-0.3,1.1-0.5,1.7-0.7c0.6-0.2,1.2-0.5,1.8-0.7c0.7-0.3,1.4-0.5,2.2-0.6
			c0.7-0.1,1.5-0.3,2.3-0.5c0.4-0.1,0.8-0.1,1.2-0.1c0.4,0,0.7,0,1.1-0.1c3.1-0.1,5.8,0.3,8,1c2.3,0.7,4.3,1.7,6,2.9
			c0.6,0.4,1.2,0.9,1.8,1.4c0.6,0.5,1.1,1.1,1.6,1.6c0.4,0.5,0.8,1.1,1.2,1.6c0.3,0.5,0.7,1.1,1.1,1.7c0.4,0.6,0.7,1.2,0.9,1.9
			c0.2,0.7,0.5,1.4,0.7,2.1c0.2,0.4,0.3,0.9,0.4,1.4c0.1,0.5,0.2,1,0.3,1.4c0.1,0.2,0.1,0.4,0.1,0.6c0,0.2,0,0.4,0.1,0.6
			c0.1,0.3,0.1,0.6,0.1,0.9C198.9,129.6,198.9,129.9,199,130.2z M187.8,133.1c0.1-0.3,0.1-0.7,0.1-1.2c0-0.5,0-0.9-0.1-1.2v-0.6
			c-0.1-0.3-0.2-0.6-0.2-0.9c0-0.3,0-0.6-0.1-0.9c0-0.2,0-0.4-0.1-0.5c-0.1-0.4-0.2-0.9-0.3-1.3c-0.1-0.5-0.2-0.9-0.4-1.3
			c-0.6-1.4-1.3-2.6-2.1-3.6c-0.8-1-1.9-1.8-3.2-2.4c-0.3-0.1-0.6-0.2-1-0.3c-0.3-0.1-0.7-0.2-1-0.3c-0.4-0.1-0.9-0.1-1.4-0.1
			c-0.5,0-1,0-1.4,0c-0.2,0.1-0.3,0.1-0.6,0.1c-0.2,0-0.4,0-0.6,0c-0.4,0.1-0.7,0.2-1.1,0.3c-0.3,0.1-0.7,0.2-0.9,0.4
			c-1.3,0.6-2.4,1.4-3.2,2.5c-0.8,1.1-1.5,2.4-2,3.8c-0.2,0.5-0.3,1.1-0.4,1.7c-0.1,0.6-0.2,1.2-0.3,1.8c-0.1,0.3-0.1,0.5-0.1,0.8
			c0,0.3,0,0.5,0,0.8c-0.1,0.4-0.1,0.9-0.1,1.7c0,0.7,0.1,1.3,0.2,1.7v0.7c0.1,0.4,0.2,0.8,0.2,1.2c0.1,0.4,0.1,0.8,0.2,1.2
			c0.5,1.6,1.1,2.9,1.7,3.9c0.6,1,1.6,1.9,2.9,2.7c0.4,0.3,0.8,0.5,1.2,0.6s0.9,0.3,1.4,0.4c0.2,0.1,0.4,0.1,0.6,0
			c0.2,0,0.3,0,0.6,0c0.2,0.1,0.4,0.1,0.7,0.1c0.2,0,0.5,0,0.7,0h0.6c0.4-0.1,0.9-0.2,1.3-0.2c0.4-0.1,0.8-0.2,1.2-0.3
			c1.4-0.5,2.5-1.3,3.4-2.2c0.9-0.9,1.6-2,2.2-3.4c0.2-0.5,0.4-1.1,0.5-1.6c0.1-0.5,0.2-1.1,0.4-1.7c0.1-0.2,0.1-0.4,0.1-0.6
			c0-0.2,0-0.4,0.1-0.6c0-0.3,0-0.5,0-0.8C187.7,133.6,187.7,133.3,187.8,133.1z"/>
		<path class="st0" d="M209.7,95.5h5.8c0.6,0,1.1,0,1.6,0.1c0.5,0.1,0.9,0.2,1.1,0.5c0.4,0.5,0.6,1.3,0.6,2.3c0,1.1,0,2.1,0,3v13.5
			v4.9c0,0.4,0,0.8-0.1,1.2c-0.1,0.4,0,0.8,0.1,1.2v0.7c0.1,0.3,0.2,0.5,0.2,0.8c0.1,0.3,0.2,0.5,0.5,0.6c0.2,0.1,0.4,0.1,0.6,0
			c0.3-0.1,0.5-0.2,0.6-0.3c0.5-0.4,1-0.8,1.4-1.3c0.4-0.5,0.8-0.9,1.2-1.4c0.4-0.4,0.9-0.9,1.4-1.3c0.5-0.5,0.9-0.9,1.3-1.5
			c0.2-0.1,0.3-0.3,0.6-0.5c0.3-0.3,0.5-0.5,0.8-0.8c0.3-0.3,0.5-0.6,0.8-0.8l1.8-1.8c0.1-0.2,0.3-0.4,0.4-0.5
			c0.2-0.1,0.4-0.3,0.5-0.5c0.4-0.5,0.9-1,1.4-1.4c0.5-0.4,1.1-0.7,1.9-0.8c0.3-0.1,0.6-0.1,1.1-0.1c0.2-0.1,0.4-0.1,0.6,0
			c0.2,0,0.5,0,0.7,0h2.6c0.4,0,0.9,0,1.6-0.1c0.6-0.1,1.1,0,1.6,0.1h0.9c0.3,0.1,0.5,0.2,0.8,0.2c0.3,0,0.5,0.1,0.6,0.4
			c0.1,0.2,0.1,0.4,0,0.6c-0.1,0.3-0.2,0.5-0.3,0.6c-0.3,0.5-0.7,1-1.2,1.4c-0.5,0.4-0.9,0.8-1.4,1.2c-0.4,0.4-0.7,0.7-1.1,1.1
			c-0.3,0.4-0.7,0.7-1.2,1c-0.3,0.2-0.5,0.4-0.7,0.7c-0.2,0.2-0.4,0.5-0.7,0.7c-0.3,0.2-0.5,0.4-0.7,0.6c-0.2,0.3-0.5,0.5-0.7,0.7
			l-3,3c-0.4,0.3-0.7,0.6-1,0.9c-0.3,0.3-0.6,0.7-0.8,1.1c-0.1,0.2-0.2,0.4-0.3,0.6c-0.1,0.2-0.1,0.5,0,0.8c0.1,0.6,0.3,1.1,0.6,1.4
			c0.3,0.4,0.6,0.8,0.8,1.2c0.4,0.6,0.8,1.2,1.2,1.8c0.3,0.6,0.7,1.2,1.2,1.8l8.4,12.7c0.5,0.7,1.1,1.5,1.6,2.2
			c0.5,0.7,1,1.5,1.4,2.2c0.2,0.3,0.3,0.6,0.3,1c0,0.4-0.1,0.7-0.4,0.9c-0.2,0.1-0.4,0.2-0.6,0.2c-0.2,0-0.5,0.1-0.7,0.2
			c-0.2,0.1-0.5,0.1-0.7,0c-0.3,0-0.5,0-0.8,0h-3.1c-0.9,0-1.9,0-3,0c-1.2,0-2.1-0.1-2.6-0.4c-0.6-0.3-1.1-0.8-1.5-1.5
			c-0.4-0.7-0.8-1.4-1.2-2c-0.9-1.4-1.8-2.9-2.7-4.4c-0.9-1.5-1.8-2.9-2.7-4.4c-0.4-0.7-0.8-1.4-1.2-2.1c-0.4-0.7-0.8-1.4-1.3-2
			c-0.1-0.2-0.3-0.4-0.6-0.6c-0.3-0.3-0.6-0.3-0.9-0.2c-0.5,0.1-0.8,0.3-1.1,0.5c-0.2,0.2-0.5,0.5-0.8,0.7c-0.4,0.3-0.8,0.7-1.2,1.1
			c-0.4,0.4-0.7,0.9-0.9,1.5c-0.1,0.4-0.2,0.9-0.2,1.4c0,0.5,0,1,0,1.5v5c0,0.4,0,0.8,0,1.2c0,0.5,0,0.9,0,1.4s0,0.9-0.1,1.3
			c-0.1,0.4-0.2,0.7-0.3,0.9c-0.2,0.3-0.5,0.5-1,0.7c-0.5,0.1-1,0.2-1.6,0.2c-0.6,0-1.2,0-1.8,0c-0.6,0-1.2,0-1.7,0
			c-0.6,0-1.2,0-1.9,0c-0.7,0-1.3,0-1.7-0.2c-0.7-0.3-1.1-0.7-1.1-1.4c-0.1-0.7-0.1-1.5-0.1-2.4v-9.2v-32.1v-7.4c0-0.6,0-1.2,0-1.8
			c0-0.6,0.1-1.1,0.3-1.5c0.2-0.4,0.6-0.6,1.1-0.8c0.1,0,0.2,0,0.4,0C209.5,95.5,209.6,95.5,209.7,95.5z"/>
		<path class="st0" d="M78.2,169.1C83.8,169,88.4,170,92,172c3.6,2,6.5,4.7,8.6,8.1c0.6,0.9,1.1,1.8,1.4,2.8c0.4,0.9,0.7,2,1,3.1
			c0.1,0.4,0.2,0.8,0.3,1.3c0.1,0.5,0.1,0.9-0.1,1.4c-0.1,0.3-0.3,0.5-0.6,0.6s-0.6,0.2-1,0.3h-0.6c-0.3,0.1-0.7,0.1-1.1,0.1
			c-0.4,0-0.8,0-1.2,0c-0.5,0-1.1,0-1.7,0c-0.7,0-1.3,0-2,0c-0.6,0-1.2-0.1-1.8-0.2c-0.5-0.1-0.9-0.2-1.2-0.4
			c-0.4-0.4-0.7-0.9-1-1.5c-0.2-0.6-0.5-1.2-0.8-1.7c-1-1.8-2.3-3.1-4-4.2c-1.1-0.7-2.4-1.3-3.8-1.7c-0.9-0.3-2-0.5-3.4-0.5
			c-1.4,0-2.5,0.1-3.6,0.4c-0.4,0.1-0.8,0.2-1.2,0.3c-0.3,0.1-0.7,0.2-1.1,0.4c-3.6,1.5-6.2,4.1-7.7,7.7c-0.3,0.6-0.5,1.3-0.7,2
			c-0.2,0.7-0.5,1.4-0.7,2.2c-0.1,0.4-0.1,0.7-0.2,1c-0.1,0.3-0.1,0.7-0.2,1c-0.1,0.3-0.1,0.7-0.1,1c0,0.3,0,0.7-0.1,1.1
			c-0.1,0.4-0.1,0.9-0.1,1.3c0,0.5,0,0.9,0,1.3c0,0.2,0,0.4,0,0.6c0,0.2,0,0.4,0,0.6v0.7c0.1,0.3,0.1,0.5,0.1,0.8
			c0,0.3,0,0.5,0.1,0.8c0,0.3,0.1,0.7,0.2,1.3c0.1,0.6,0.2,1.1,0.3,1.6c0.1,0.5,0.2,1,0.4,1.5c0.7,2.2,1.7,4.1,2.9,5.7
			c1.2,1.6,2.7,2.9,4.6,3.9c0.6,0.3,1.2,0.5,1.8,0.7c0.6,0.2,1.3,0.4,2.1,0.6c0.3,0.1,0.5,0.1,0.8,0.1c0.2,0,0.5,0,0.8,0h0.6
			c0.3,0.1,0.6,0.1,1,0.1c0.4,0,0.8-0.1,1-0.1c0.3,0,0.6,0,0.7-0.1c0.6-0.1,1.2-0.2,1.8-0.3c0.6-0.1,1.1-0.3,1.6-0.6
			c1.2-0.5,2.3-1.2,3.2-2.1c0.9-0.9,1.7-1.9,2.4-3c0.3-0.5,0.6-1.1,0.8-1.8c0.2-0.6,0.5-1.3,0.7-1.9c0.2-0.6,0.3-1.1,0.5-1.6
			s0.5-0.9,1-1.1c0.3-0.1,0.7-0.2,1.2-0.2c0.5,0,0.9,0,1.4,0h4.9c0.5,0,1,0,1.5,0c0.5,0,0.9,0.1,1.2,0.3c0.4,0.3,0.6,0.7,0.6,1.3
			c0,0.6,0,1.1-0.2,1.7l-0.5,2.2c-0.3,0.8-0.5,1.6-0.8,2.3c-0.2,0.7-0.5,1.5-0.9,2.2c-0.3,0.4-0.5,0.8-0.6,1.2
			c-0.2,0.4-0.4,0.8-0.6,1.2c-2.9,4.6-7.2,7.8-12.8,9.6c-0.6,0.2-1.2,0.4-1.8,0.5c-0.6,0.1-1.2,0.2-1.8,0.3
			c-0.3,0.1-0.5,0.1-0.8,0.1c-0.2,0-0.5,0-0.8,0.1c-0.4,0-0.7,0-1.1,0c-0.3,0-0.7,0.1-1.1,0.1h-1.3c-0.5,0-1,0-1.4,0
			c-0.5,0-0.9-0.1-1.4-0.2c-0.2-0.1-0.4-0.1-0.8-0.1c-0.4-0.1-0.7-0.1-1.1-0.2c-0.4-0.1-0.8-0.1-1.2-0.2c-0.5-0.2-1.1-0.3-1.6-0.4
			c-0.5-0.1-1-0.2-1.6-0.4c-0.5-0.2-1-0.3-1.4-0.5c-0.5-0.2-0.9-0.4-1.4-0.6c-3.2-1.4-5.9-3.2-8.1-5.6c-2.2-2.3-4-5.1-5.4-8.3
			c-0.3-0.8-0.6-1.6-0.8-2.4c-0.2-0.8-0.5-1.6-0.7-2.5c-0.1-0.3-0.2-0.5-0.2-0.7c0-0.2,0-0.4-0.1-0.6c-0.1-0.5-0.2-1-0.2-1.5
			c-0.1-0.5-0.1-1-0.2-1.5c-0.1-0.3-0.1-0.5-0.1-0.7c0-0.2,0-0.4,0-0.6v-1.5c-0.1-0.3-0.2-0.7-0.2-1.2c0-0.5,0.1-0.9,0.2-1.2
			c0.1-0.2,0.1-0.3,0-0.5c0-0.2,0-0.3,0-0.4v-0.7c0.1-0.4,0.2-0.9,0.2-1.4c0-0.5,0.1-1,0.1-1.4c0.1-0.4,0.2-0.8,0.2-1.2
			c0.1-0.4,0.1-0.8,0.2-1.2c0.2-0.7,0.4-1.5,0.6-2.2c0.2-0.7,0.4-1.4,0.6-2c0.3-0.7,0.5-1.4,0.8-2.1c0.3-0.7,0.6-1.3,1-1.9
			c0.9-1.5,1.7-2.8,2.6-4c0.3-0.4,0.6-0.7,0.9-1c0.3-0.3,0.6-0.6,1-1c1.3-1.3,2.7-2.5,4.2-3.4c1.5-0.9,3.1-1.8,5-2.5
			c0.6-0.3,1.3-0.5,2-0.7c0.7-0.2,1.4-0.4,2.2-0.5c0.3-0.1,0.6-0.2,1-0.2s0.6-0.1,0.9-0.2c0.4-0.1,0.8-0.1,1.2-0.1
			c0.4,0,0.8-0.1,1.2-0.1c0.1-0.1,0.2-0.1,0.4,0C78,169.2,78.1,169.2,78.2,169.1z"/>
		<path class="st0" d="M153.1,205.2c0.1,0.3,0.2,0.8,0.2,1.4c0,0.6-0.1,1-0.2,1.4v0.8c-0.1,0.4-0.1,0.9-0.1,1.3c0,0.4,0,0.9-0.1,1.3
			c-0.1,0.4-0.2,0.7-0.2,1c-0.1,0.3-0.1,0.7-0.2,1c-0.2,0.6-0.4,1.2-0.6,1.8c-0.2,0.6-0.4,1.2-0.6,1.7c-1.1,2.6-2.6,4.6-4.4,6.2
			c-1.8,1.6-4,2.9-6.6,4c-0.6,0.3-1.3,0.5-2,0.6c-0.7,0.1-1.3,0.3-2,0.4c-0.3,0.1-0.6,0.2-0.9,0.2s-0.6,0-0.9,0.1
			c-0.2,0-0.3,0-0.5,0c-0.2,0-0.4,0-0.5,0c-0.3,0.1-0.7,0.1-1.3,0.1c-0.6,0-1,0-1.4-0.1H130c-0.3-0.1-0.5-0.1-0.8,0
			c-0.3,0-0.6,0-0.8-0.1c-0.2-0.1-0.4-0.1-0.6-0.1c-0.2,0-0.4,0-0.7-0.1c-0.5-0.2-1.1-0.3-1.6-0.4c-0.5-0.1-1-0.3-1.5-0.5
			c-0.6-0.2-1.2-0.4-1.8-0.6c-0.6-0.2-1.1-0.5-1.7-0.8c-1.9-1.1-3.5-2.4-4.8-3.9c-1.3-1.5-2.5-3.3-3.4-5.4c-0.3-0.5-0.5-1-0.6-1.5
			c-0.1-0.5-0.3-1.1-0.4-1.7c-0.1-0.3-0.2-0.5-0.2-0.7c0-0.2-0.1-0.5-0.2-0.7c-0.1-0.4-0.2-0.9-0.2-1.3c0-0.5-0.1-0.9-0.2-1.3
			c-0.1-0.3-0.1-0.5-0.1-0.7c0-0.2,0-0.5,0-0.7c-0.1-0.3-0.1-0.8-0.1-1.4c0-0.6,0.1-1,0.2-1.4v-0.6c0.1-0.3,0.1-0.5,0-0.8
			c0-0.3,0-0.6,0.1-0.8c0.1-0.3,0.1-0.5,0.1-0.8c0-0.2,0.1-0.5,0.2-0.8c0.2-0.7,0.4-1.4,0.6-2c0.2-0.7,0.4-1.3,0.6-2
			c1-2.2,2.1-4,3.4-5.5c1.3-1.5,3-2.8,4.9-4c0.5-0.3,1.1-0.5,1.7-0.7c0.6-0.2,1.2-0.5,1.8-0.7c0.7-0.3,1.4-0.5,2.2-0.6
			c0.7-0.1,1.5-0.3,2.3-0.5c0.4-0.1,0.8-0.1,1.2-0.1c0.4,0,0.7,0,1.1-0.1c3.1-0.1,5.8,0.3,8,1c2.3,0.7,4.3,1.7,6,2.9
			c0.6,0.4,1.2,0.9,1.8,1.4c0.6,0.5,1.1,1.1,1.6,1.6c0.4,0.5,0.8,1.1,1.2,1.6c0.3,0.5,0.7,1.1,1.1,1.7c0.4,0.6,0.7,1.2,0.9,1.9
			c0.2,0.7,0.5,1.4,0.7,2.1c0.2,0.4,0.3,0.9,0.4,1.4c0.1,0.5,0.2,1,0.3,1.4c0.1,0.2,0.1,0.4,0.1,0.6c0,0.2,0,0.4,0.1,0.6
			c0.1,0.3,0.1,0.6,0.1,0.9C152.9,204.6,153,204.9,153.1,205.2z M141.9,208.1c0.1-0.3,0.1-0.7,0.1-1.2c0-0.5,0-0.9-0.1-1.2v-0.6
			c-0.1-0.3-0.2-0.6-0.2-0.9c0-0.3,0-0.6-0.1-0.9c0-0.2,0-0.4-0.1-0.5c-0.1-0.4-0.2-0.9-0.3-1.3c-0.1-0.5-0.2-0.9-0.4-1.3
			c-0.6-1.4-1.3-2.6-2.1-3.6c-0.8-1-1.9-1.8-3.2-2.4c-0.3-0.1-0.6-0.2-1-0.3c-0.3-0.1-0.7-0.2-1-0.3c-0.4-0.1-0.9-0.1-1.4-0.1
			c-0.5,0-1,0-1.4,0c-0.2,0.1-0.3,0.1-0.6,0.1c-0.2,0-0.4,0-0.6,0c-0.4,0.1-0.7,0.2-1.1,0.3c-0.3,0.1-0.7,0.2-0.9,0.4
			c-1.3,0.6-2.4,1.4-3.2,2.5c-0.8,1.1-1.5,2.4-2,3.8c-0.2,0.5-0.3,1.1-0.4,1.7c-0.1,0.6-0.2,1.2-0.3,1.8c-0.1,0.3-0.1,0.5-0.1,0.8
			c0,0.3,0,0.5,0,0.8c-0.1,0.4-0.1,0.9-0.1,1.7c0,0.7,0.1,1.3,0.2,1.7v0.7c0.1,0.4,0.2,0.8,0.2,1.2c0.1,0.4,0.1,0.8,0.2,1.2
			c0.5,1.6,1.1,2.9,1.7,3.9c0.6,1,1.6,1.9,2.9,2.7c0.4,0.3,0.8,0.5,1.2,0.6s0.9,0.3,1.4,0.4c0.2,0.1,0.4,0.1,0.6,0
			c0.2,0,0.3,0,0.6,0c0.2,0.1,0.4,0.1,0.7,0.1c0.2,0,0.5,0,0.7,0h0.6c0.4-0.1,0.9-0.2,1.3-0.2c0.4-0.1,0.8-0.2,1.2-0.3
			c1.4-0.5,2.5-1.3,3.4-2.2c0.9-0.9,1.6-2,2.2-3.4c0.2-0.5,0.4-1.1,0.5-1.6c0.1-0.5,0.2-1.1,0.4-1.7c0.1-0.2,0.1-0.4,0.1-0.6
			c0-0.2,0-0.4,0.1-0.6c0-0.3,0-0.5,0-0.8C141.8,208.6,141.8,208.3,141.9,208.1z"/>
		<path class="st0" d="M184.3,185.2c2-0.1,3.7,0.2,5.2,0.6c1.5,0.5,2.8,1.1,3.9,2c0.4,0.3,0.8,0.7,1.2,1.1c0.3,0.4,0.7,0.9,1.2,1.3
			c0.1,0.1,0.3,0.3,0.5,0.4c0.2,0.2,0.5,0.2,0.8,0.1c0.6-0.2,1.1-0.5,1.7-1.2c0.5-0.6,1-1.1,1.5-1.4c0.7-0.6,1.5-1.1,2.4-1.5
			c0.9-0.4,1.8-0.8,2.9-1.2c0.4-0.1,0.9-0.2,1.6-0.3c0.6-0.1,1.3-0.1,1.9-0.2c0.7,0,1.3,0,1.9,0c0.6,0.1,1.2,0.1,1.6,0.2
			c0.3,0.1,0.5,0.1,0.7,0.1c0.2,0,0.5,0.1,0.7,0.2c0.7,0.2,1.5,0.4,2.2,0.6c0.7,0.2,1.3,0.5,1.9,0.9c2.2,1.4,3.9,3.4,5,6.1
			c0.2,0.5,0.4,1,0.5,1.5c0.1,0.5,0.2,1,0.3,1.5c0.1,0.4,0.1,0.7,0.1,1c0,0.3,0.1,0.6,0.1,1v0.8c0.1,0.3,0.1,0.7,0,1.1
			c0,0.4,0,0.8,0,1.2v4.6v15.6c0,0.4,0,0.9,0,1.5c0,0.6,0,1.1,0,1.6c0,0.5-0.1,1-0.2,1.4c-0.1,0.5-0.3,0.8-0.5,0.9
			c-0.3,0.3-0.7,0.4-1.2,0.4c-0.5,0-1.1,0-1.6,0h-4.2c-0.7,0-1.4-0.1-2-0.2c-0.6-0.1-1-0.4-1.2-0.9c-0.2-0.4-0.2-0.8-0.2-1.2
			c0-0.5,0-0.9,0-1.3v-4.5v-10.8v-3.4c0-0.3,0-0.6,0-0.9c0-0.3,0-0.6-0.1-0.9v-0.6c0-0.3,0-0.6,0-1c0-0.3,0-0.6-0.1-1
			c-0.1-0.2-0.1-0.4-0.1-0.7c0-0.2,0-0.5-0.1-0.7c-0.2-0.8-0.4-1.5-0.7-2.1c-0.2-0.6-0.6-1.2-1.1-1.6c-0.7-0.7-1.7-1.3-2.7-1.6
			c-0.2-0.1-0.4-0.1-0.6,0c-0.2,0-0.3,0-0.6-0.1c-0.2-0.1-0.5-0.1-0.8-0.1c-0.3,0-0.6,0-0.8,0c-0.3,0.1-0.6,0.2-1,0.2
			s-0.6,0.1-1,0.2c-1.5,0.5-2.7,1.3-3.4,2.4c-0.9,1.2-1.5,2.8-1.6,4.6c-0.2,1.8-0.3,3.9-0.3,6v10.6v5.9c0,0.5,0,1.1,0,1.6
			c0,0.5-0.1,1-0.4,1.3c-0.3,0.4-0.7,0.6-1.2,0.7c-0.5,0.1-1.1,0.1-1.7,0.1h-4.3c-0.5,0-0.9,0-1.4,0c-0.5,0-0.8-0.1-1.2-0.2
			c-0.5-0.3-0.8-0.7-0.9-1.3s-0.1-1.3-0.1-2v-6.8v-12.6c0-1.5-0.1-3-0.2-4.4c-0.1-1.4-0.5-2.5-1-3.4c-0.4-0.7-1-1.3-1.6-1.7
			c-0.7-0.4-1.5-0.7-2.4-1c-0.2-0.1-0.4-0.1-0.6,0c-0.2,0-0.5,0-0.7,0c-0.6-0.1-1.1-0.1-1.7,0.2c-0.1,0-0.2,0-0.3,0
			c-0.1,0-0.2,0-0.3,0c-0.9,0.3-1.7,0.7-2.5,1.4c-0.9,0.6-1.5,1.4-2,2.2c-0.5,0.8-0.8,1.8-1,2.8c-0.2,1-0.3,2.2-0.3,3.4
			c0,1.2,0,2.6,0,4v10.8v4.9c0,0.5,0,1,0,1.4c0,0.5-0.1,0.9-0.2,1.3c-0.2,0.5-0.6,0.8-1.2,0.9c-0.6,0.1-1.3,0.2-2,0.2h-4.2
			c-0.5,0-1.1,0-1.6,0c-0.5,0-0.9-0.1-1.2-0.4c-0.5-0.3-0.7-0.8-0.8-1.5c0-0.7,0-1.5,0-2.3V214v-19.5v-4.8c0-0.6,0-1.1,0-1.6
			c0-0.5,0.1-0.8,0.4-1.2c0.3-0.3,0.7-0.5,1.3-0.6h0.5c0.3-0.1,0.5-0.1,0.8-0.1c0.3,0,0.6,0,0.8,0h3.3c0.4,0,0.8,0,1.2,0
			c0.4,0,0.8,0.1,1.1,0.2c0.4,0.2,0.7,0.4,0.8,0.8c0.1,0.4,0.3,0.8,0.4,1.3c0.1,0.2,0.1,0.3,0,0.4c0,0.1,0,0.3,0.1,0.4
			c0.1,0.2,0.1,0.3,0.2,0.4c0.1,0.1,0.2,0.2,0.3,0.3c0.6,0.1,1.2-0.1,1.6-0.6c0.4-0.5,0.8-0.8,1.2-1.1c0.7-0.5,1.5-1,2.3-1.4
			c0.8-0.4,1.6-0.8,2.5-1c0.5-0.2,1-0.3,1.4-0.3c0.5-0.1,1-0.1,1.5-0.2c0.2-0.1,0.4-0.1,0.7,0C184,185.2,184.2,185.2,184.3,185.2z"
			/>
		<path class="st0" d="M275.1,206.4c0.1,0.3,0.1,0.8,0.1,1.4c0,0.6-0.1,1.1-0.2,1.4v1c-0.2,0.6-0.3,1.1-0.3,1.7
			c0,0.5-0.1,1.1-0.3,1.6c-0.1,0.5-0.2,1-0.3,1.5c-0.1,0.5-0.3,1-0.5,1.5c-0.4,0.9-0.7,1.7-1.1,2.5c-0.4,0.8-0.8,1.5-1.3,2.3
			c-0.3,0.5-0.7,0.9-1,1.3c-0.3,0.4-0.7,0.8-1.2,1.2l-0.6,0.6c-0.3,0.3-0.5,0.5-0.8,0.7c-0.3,0.2-0.6,0.4-0.8,0.6
			c-0.4,0.3-0.9,0.6-1.4,0.8s-1,0.5-1.6,0.8c-0.5,0.3-1.1,0.5-1.6,0.6c-0.6,0.1-1.1,0.2-1.7,0.3c-0.3,0.1-0.7,0.2-1,0.2
			c-0.3,0-0.7,0.1-1.1,0.2h-0.7c-0.4,0.1-0.8,0.1-1.2,0h-0.8c-0.3-0.1-0.7-0.1-1-0.1c-0.3,0-0.7,0-1-0.1c-0.9-0.3-1.7-0.5-2.4-0.7
			c-0.8-0.2-1.5-0.5-2.1-1c-0.4-0.2-0.7-0.4-1-0.7c-0.3-0.2-0.7-0.5-1-0.8c-0.2-0.2-0.5-0.4-1-0.7c-0.4-0.3-0.8-0.3-1.1-0.1
			c-0.3,0.2-0.4,0.4-0.4,0.6c0,0.2-0.1,0.5-0.2,0.8c-0.1,0.5-0.1,1.1-0.1,1.8c0,0.7,0,1.3,0,1.9v8.2c0,0.7,0,1.4,0,2
			c0,0.7-0.2,1.2-0.4,1.6c-0.2,0.2-0.5,0.4-0.9,0.5c-0.4,0.1-0.9,0.2-1.4,0.2c-0.5,0-1.1,0-1.6,0c-0.5,0-1,0-1.4,0h-2.2
			c-0.2,0-0.3,0-0.6,0c-0.2,0-0.4,0-0.6-0.1h-0.6c-0.9-0.3-1.4-0.8-1.4-1.6c-0.1-0.8-0.1-1.7-0.1-2.8v-47c0-0.6,0-1.2,0-1.9
			c0-0.7,0.1-1.2,0.4-1.6c0.2-0.4,0.5-0.6,0.9-0.7c0.3-0.1,0.6-0.2,1-0.2c0.4,0,0.8,0,1.2,0h3.8c0.5,0,1,0,1.5,0
			c0.5,0,0.9,0.1,1.2,0.4c0.4,0.3,0.6,0.6,0.6,1c0,0.4,0.1,0.8,0.4,1.2c0.1,0.2,0.1,0.3,0.2,0.4s0.2,0.2,0.3,0.3
			c0.6,0.1,1.1-0.1,1.4-0.5c0.4-0.4,0.7-0.7,1.1-1c0.7-0.5,1.4-0.9,2.2-1.3c0.7-0.4,1.6-0.7,2.5-1c0.4-0.2,0.9-0.3,1.4-0.3
			c0.5-0.1,1-0.1,1.5-0.2c0.2-0.1,0.4-0.1,0.7,0c0.2,0.1,0.4,0,0.6-0.1c3-0.1,5.6,0.3,7.7,1.2c2.1,0.9,3.9,2.1,5.4,3.6
			c0.3,0.3,0.5,0.5,0.7,0.8c0.2,0.2,0.4,0.5,0.6,0.8c0.4,0.5,0.7,1,1,1.4s0.6,1,0.8,1.4c0.1,0.1,0.2,0.2,0.2,0.4
			c0,0.2,0.1,0.3,0.2,0.6c0.3,0.5,0.6,1.2,0.9,1.9c0.1,0.3,0.2,0.7,0.3,1c0.1,0.3,0.2,0.7,0.3,1.1c0.2,0.6,0.4,1.3,0.4,2
			c0.1,0.7,0.2,1.4,0.4,2.2c0,0.3,0,0.6,0,0.9c0,0.3,0.1,0.6,0.1,1V206.4z M263.8,208.2c0.1-0.3,0.1-0.6,0.1-1.1
			c0-0.5,0-0.8-0.1-1.1v-0.7c-0.1-0.3-0.2-0.7-0.2-1c0-0.4-0.1-0.7-0.2-1.1c-0.1-0.5-0.2-1.1-0.3-1.6c-0.1-0.5-0.3-1-0.5-1.4
			c-0.6-1.7-1.5-3.1-2.5-4.1c-1-1-2.5-1.8-4.3-2.2c-0.4-0.1-0.9-0.2-1.4-0.2s-1,0-1.5,0c-0.2,0.1-0.4,0.1-0.6,0.1
			c-0.2,0-0.3,0-0.6,0.1c-0.4,0.1-0.7,0.2-1.1,0.3c-0.3,0.1-0.7,0.2-1,0.4c-1.4,0.6-2.5,1.5-3.2,2.7c-0.8,1.2-1.4,2.6-1.9,4.1
			c-0.1,0.4-0.2,0.9-0.2,1.3c-0.1,0.5-0.1,0.9-0.2,1.3c-0.1,0.2-0.1,0.6-0.1,1c-0.1,0.2-0.1,0.5-0.1,0.8c0.1,0.3,0.1,0.6,0,0.8
			c-0.1,0.3-0.1,0.6,0,0.9v1c0,0.3,0,0.5,0,0.7c0,0.2,0.1,0.4,0.2,0.6c0,0.4,0,0.7,0.1,0.9c0.1,0.3,0.1,0.6,0.2,1
			c0.1,0.3,0.1,0.6,0.2,1c0.5,1.5,1.1,2.8,1.7,3.8c0.7,1,1.6,1.9,2.8,2.6c0.7,0.4,1.6,0.8,2.6,1c0.2,0.1,0.4,0.1,0.6,0
			c0.2,0,0.3,0,0.6,0c0.2,0.1,0.5,0.1,1,0.1c0.4,0,0.8,0,1,0c0.4-0.1,0.9-0.2,1.3-0.3c0.5-0.1,0.9-0.2,1.3-0.4
			c1.3-0.5,2.3-1.3,3.1-2.2s1.5-2.1,2-3.4c0.3-0.6,0.5-1.3,0.6-2c0.1-0.7,0.2-1.4,0.4-2.2c0-0.3,0-0.5,0-0.8
			C263.8,208.8,263.8,208.5,263.8,208.2z"/>
		<path class="st0" d="M321.2,206.5c0.1,0.4,0.1,0.9,0,1.4c-0.1,0.5-0.3,0.9-0.6,1c-0.3,0.2-0.7,0.4-1.2,0.4s-1.1,0.1-1.7,0.2
			c-0.6,0-1.2,0-1.8,0c-0.6,0-1.2,0-1.6,0h-19.5c-0.4,0-0.7,0-1.1,0c-0.3,0-0.7,0.1-0.9,0.2c-0.4,0.2-0.7,0.4-0.8,0.6
			c-0.1,0.1-0.2,0.3-0.3,0.6c-0.1,0.3-0.1,0.6-0.1,0.8c0.1,0.3,0.2,0.6,0.2,0.9c0,0.3,0.1,0.6,0.2,0.9c0.4,1.3,0.9,2.3,1.6,3.2
			c0.6,0.8,1.5,1.6,2.5,2.2c0.4,0.3,0.9,0.4,1.3,0.5s0.9,0.2,1.4,0.4c0.4,0.1,1,0.2,1.8,0.2c0.7,0.1,1.4,0,1.9-0.1h0.7
			c0.5-0.1,1-0.2,1.5-0.4c0.5-0.1,0.9-0.3,1.3-0.4c0.5-0.3,1.1-0.6,1.8-1c0.7-0.4,1.2-0.9,1.5-1.3c0.3-0.4,0.5-0.7,0.8-1.1
			c0.3-0.3,0.7-0.6,1.1-0.8c0.5-0.3,1.2-0.4,2-0.4c0.8,0,1.6,0,2.3,0c0.3,0,0.7,0,1,0c0.3,0,0.7,0,0.9,0.1h0.8
			c0.5,0.1,0.9,0.2,1.1,0.4c0.2,0.1,0.3,0.3,0.4,0.7c0,0.4,0,0.7-0.1,1c-0.3,0.7-0.6,1.4-0.9,2c-0.3,0.6-0.7,1.2-1.1,1.8
			c-1.2,1.8-2.5,3.2-4,4.2c-1.5,1.1-3.4,2-5.6,2.7c-0.6,0.2-1.2,0.3-1.8,0.4c-0.6,0.1-1.2,0.2-1.8,0.3c-0.2,0.1-0.4,0.1-0.7,0
			c-0.2,0-0.5,0-0.7,0h-0.9c-0.3,0.1-0.6,0.1-0.9,0.1c-0.3,0-0.7-0.1-0.9-0.1c-0.4-0.1-0.8-0.1-1.1,0c-0.3,0.1-0.7,0-1-0.1
			c-0.3-0.1-0.6-0.2-0.9-0.2c-0.3,0-0.6-0.1-0.9-0.2c-0.6-0.1-1.2-0.2-1.8-0.4c-0.6-0.1-1.1-0.3-1.6-0.6c-0.6-0.2-1.1-0.4-1.6-0.6
			c-0.5-0.2-1-0.4-1.4-0.7c-1.7-1.1-3.2-2.3-4.6-3.7c-1.3-1.4-2.4-3.1-3.3-4.9c-0.3-0.6-0.5-1.2-0.6-1.8c-0.2-0.6-0.4-1.2-0.6-1.9
			c-0.1-0.2-0.1-0.4-0.1-0.6c0-0.2,0-0.4-0.1-0.6c-0.2-0.6-0.3-1.3-0.4-2.1c-0.1-0.7-0.1-1.5-0.2-2.2c0-0.3,0-0.6,0-0.9
			c0-0.3,0-0.6,0-0.9v-1l0.2-1.9c0.2-0.9,0.4-1.8,0.6-2.6c0.2-0.9,0.4-1.7,0.7-2.4c2.3-5.5,6.2-9.5,11.7-11.8
			c0.7-0.3,1.5-0.5,2.3-0.7c0.8-0.1,1.6-0.3,2.4-0.5c0.4-0.1,0.8-0.1,1.2-0.1s0.8,0,1.2-0.1c2.7-0.1,5.1,0.3,7,0.9
			c1.9,0.7,3.7,1.5,5.2,2.6c0.5,0.3,1,0.7,1.4,1.1c0.5,0.4,0.9,0.8,1.3,1.2c0.2,0.3,0.4,0.5,0.6,0.6c0.4,0.6,0.8,1.2,1.2,1.8
			c0.4,0.6,0.8,1.2,1.2,1.9c0.3,0.5,0.5,1,0.7,1.5c0.2,0.5,0.4,1.1,0.6,1.6c0.3,0.7,0.5,1.4,0.6,2.2c0.2,0.7,0.3,1.5,0.6,2.2
			c0.1,0.4,0.1,0.9,0.1,1.4c0,0.5,0,1,0.1,1.4V206.5z M309.2,201.7c0.4-0.5,0.4-1.2,0.1-2c-0.3-0.8-0.5-1.3-0.7-1.7
			c-0.7-1.4-1.7-2.5-3-3.3c-1.2-0.8-2.9-1.2-5.1-1.2c-0.2,0.1-0.3,0.1-0.6,0.1c-0.2-0.1-0.4-0.1-0.6,0c-0.3,0.1-0.6,0.2-0.9,0.2
			c-0.3,0-0.6,0.1-0.9,0.2c-2.3,0.7-4.1,2.2-5.2,4.4c-0.1,0.2-0.2,0.5-0.4,0.8c-0.1,0.3-0.2,0.7-0.3,1c-0.1,0.3,0,0.7,0,1
			c0.1,0.3,0.3,0.6,0.5,0.8c0.4,0.3,1,0.4,1.8,0.4c0.7,0,1.5,0,2.2,0h8.9c0.7,0,1.5,0,2.4,0C308.3,202.4,308.9,202.2,309.2,201.7z"
			/>
		<path class="st0" d="M351.4,185.2c3.2-0.1,5.9,0.3,8,1.4c2.1,1,3.8,2.5,5,4.5c0.4,0.6,0.7,1.2,0.9,1.9c0.2,0.7,0.4,1.3,0.6,2
			c0.1,0.4,0.2,0.8,0.2,1.2c0,0.4,0.1,0.7,0.2,1.1c0,0.3,0,0.5,0.1,0.6c0.1,0.7,0.2,1.5,0.2,2.3c0,0.8,0,1.6,0,2.3v7.1v13
			c0,1,0,2,0,2.9c0,0.9-0.4,1.5-1.2,1.8c-0.3,0.1-0.7,0.2-1.1,0.2s-0.9,0-1.3,0h-4.3c-0.6,0-1.2,0-1.7-0.1c-0.5-0.1-0.9-0.3-1.2-0.7
			c-0.2-0.3-0.3-0.7-0.4-1.2c0-0.5,0-1.1,0-1.6v-5.6v-11.9c0-2-0.1-3.8-0.2-5.5c-0.2-1.7-0.6-3.1-1.4-4.3c-0.7-1.1-1.8-1.8-3.3-2.2
			c-0.3-0.1-0.5-0.2-0.8-0.2c-0.3,0-0.6-0.1-0.9-0.2c-0.3-0.1-0.6-0.1-1,0c-0.4,0-0.7,0.1-0.9,0.1c-0.2,0.1-0.4,0.1-0.6,0.1
			c-0.2,0-0.3,0-0.5,0.1c-1.2,0.3-2.2,0.7-3,1.3c-1.7,1.2-2.7,3-3,5.4c-0.3,2.3-0.5,5-0.5,7.9v10v4.9c0,0.5,0,1,0,1.4
			c0,0.5-0.1,0.9-0.2,1.2c-0.3,0.6-0.7,0.9-1.3,1c-0.6,0.1-1.3,0.2-2.2,0.2h-4c-0.6,0-1.2,0-1.8-0.1c-0.6-0.1-1-0.2-1.3-0.6
			c-0.4-0.5-0.5-1.2-0.5-2.1c0-0.9,0-1.8,0-2.6v-10.9v-17.6v-4.1c0-0.6,0-1.1,0-1.6c0-0.5,0.2-0.9,0.4-1.2c0.1-0.2,0.3-0.3,0.5-0.4
			c0.2-0.1,0.5-0.1,0.8-0.2h0.4c0.3-0.1,0.5-0.1,0.8-0.1c0.3,0,0.6,0,0.8,0h3.4c0.4,0,0.8,0,1.2,0c0.4,0,0.8,0.1,1.1,0.2
			c0.4,0.2,0.6,0.4,0.8,0.7c0.1,0.3,0.3,0.7,0.4,1.1c0.1,0.2,0.1,0.4,0,0.6c0,0.2,0,0.3,0.1,0.5c0.1,0.3,0.2,0.4,0.3,0.5
			c0.1,0.1,0.2,0.1,0.4,0.2c0.6,0.1,1.1-0.1,1.4-0.6c0.4-0.5,0.8-0.8,1.2-1.1c1.4-1.1,3-1.9,4.8-2.6c0.5-0.2,1-0.3,1.5-0.3
			c0.5-0.1,1.1-0.1,1.6-0.2c0.2-0.1,0.4-0.1,0.7,0C351.1,185.2,351.3,185.2,351.4,185.2z"/>
		<path class="st0" d="M415.7,222.9c0,0.7,0,1.5,0,2.2c0,0.7-0.2,1.3-0.5,1.7c-0.3,0.3-0.6,0.4-1,0.5c-0.4,0.1-0.9,0.1-1.4,0.1h-4.4
			c-0.5,0-1,0-1.5,0c-0.5,0-0.8-0.1-1.1-0.4c-0.4-0.3-0.6-0.6-0.6-1c-0.1-0.4-0.2-0.9-0.3-1.3c-0.1-0.1-0.2-0.2-0.3-0.3
			c-0.1-0.1-0.2-0.2-0.3-0.3c-0.6,0-1,0.1-1.3,0.4c-0.3,0.3-0.5,0.5-0.8,0.8c-0.4,0.3-0.7,0.5-1,0.7c-0.3,0.2-0.7,0.4-1,0.7
			c-0.2,0.1-0.4,0.2-0.7,0.3c-0.2,0.1-0.5,0.2-0.8,0.3c-0.7,0.3-1.5,0.5-2.4,0.7c-0.3,0.1-0.5,0.2-0.7,0.2c-0.2,0-0.4,0-0.6,0.1
			c-0.3,0-0.5,0-0.7,0c-0.2,0-0.4,0-0.7,0h-0.7c-0.3,0.1-0.8,0.1-1.4,0.1c-0.6,0-1.1-0.1-1.4-0.2c-0.4-0.1-0.7-0.1-1-0.1
			c-0.3,0-0.6,0-0.9-0.1c-0.6-0.2-1.3-0.4-1.9-0.6c-0.6-0.2-1.2-0.4-1.8-0.7c-1.9-0.8-3.5-2-5-3.7c-1.5-1.7-2.6-3.5-3.5-5.3
			c-0.3-0.6-0.5-1.2-0.6-1.7s-0.3-1.1-0.6-1.7c-0.1-0.2-0.1-0.4-0.1-0.6c0-0.2-0.1-0.4-0.2-0.7c-0.1-0.4-0.2-0.9-0.3-1.4
			c-0.1-0.5-0.2-1-0.3-1.6c-0.1-0.2-0.1-0.3,0-0.6c0-0.2,0-0.4,0-0.6c0-0.3,0-0.5,0-0.8c0-0.2,0-0.5-0.1-0.8
			c-0.1-0.3-0.1-0.6-0.1-0.9c0-0.3,0-0.6,0.1-0.8c0.1-0.3,0.1-0.5,0.1-0.8c0-0.2,0-0.5,0-0.8c0.1-0.3,0.1-0.5,0-0.8
			c0-0.2,0-0.5,0.1-0.8c0.1-0.6,0.2-1.1,0.3-1.7c0.1-0.5,0.2-1.1,0.4-1.6c0.2-0.6,0.4-1.3,0.6-1.8c0.2-0.6,0.4-1.2,0.6-1.8
			c0.7-1.6,1.7-3.1,2.8-4.6c0.1-0.2,0.3-0.3,0.4-0.4c0.2-0.1,0.3-0.3,0.4-0.4c0.2-0.3,0.4-0.5,0.6-0.7c0.2-0.2,0.5-0.4,0.7-0.6
			c0.2-0.1,0.4-0.3,0.6-0.4c0.2-0.2,0.3-0.3,0.6-0.4c1.3-0.9,2.9-1.7,4.6-2.2c0.4-0.1,0.8-0.2,1.2-0.2c0.4-0.1,0.8-0.1,1.2-0.2
			c0.4-0.1,0.9-0.2,1.4-0.2c0.6,0,1.2,0,1.8,0c0.6,0,1.2,0,1.7,0.1c0.6,0.1,1,0.1,1.4,0.2c0.8,0.3,1.6,0.5,2.3,0.7
			c0.7,0.2,1.4,0.5,2.1,0.9c0.4,0.3,0.7,0.5,1,0.8c0.3,0.2,0.7,0.5,1,0.8c0.2,0.2,0.5,0.4,0.9,0.6c0.4,0.3,0.8,0.3,1.2,0
			c0.2-0.1,0.3-0.3,0.3-0.6c0-0.3,0.1-0.5,0.2-0.8v-0.8c0.1-0.2,0.1-0.3,0.1-0.6c0-0.2,0-0.4,0-0.6V175c0-0.6,0-1.2,0-2
			c0-0.7,0.1-1.3,0.4-1.6c0.2-0.4,0.6-0.7,1.2-0.8c0.1-0.1,0.2-0.1,0.3,0c0.1,0,0.2,0,0.3,0h5.7c0.6,0,1.2,0,1.8,0.1
			c0.5,0.1,0.9,0.3,1.2,0.6c0.3,0.4,0.4,1,0.4,1.6c0,0.7,0,1.3,0,2V222.9z M404.8,207.3c0.1-0.2,0.1-0.4,0-0.7c0-0.2,0-0.5,0-0.7
			c0-0.5,0-1.1-0.1-1.6c-0.1-0.5-0.1-1-0.2-1.4c-0.1-0.6-0.2-1.1-0.3-1.6c-0.1-0.5-0.2-0.9-0.4-1.4c-0.7-1.9-1.8-3.4-3.2-4.6
			c-1.4-1.1-3.5-1.7-6.1-1.7c-0.3,0-0.7,0.1-1.3,0.2c-0.4,0.1-0.8,0.2-1.2,0.3c-0.3,0.1-0.7,0.2-1,0.4c-1.4,0.6-2.6,1.5-3.4,2.7
			c-0.8,1.2-1.4,2.6-1.9,4.2c-0.2,0.5-0.3,1.1-0.3,1.6c-0.1,0.5-0.2,1.1-0.3,1.7v1.1c-0.1,0.5-0.1,1.1-0.1,2
			c0.1,0.8,0.1,1.4,0.2,1.8c0,0.2,0,0.3,0,0.4c0,0.1,0,0.3,0,0.4c0.1,0.4,0.2,0.8,0.3,1.2c0.1,0.4,0.2,0.8,0.3,1.2
			c0.9,2.8,2.5,4.8,4.6,6.2c0.7,0.5,1.7,0.9,2.9,1.1c0.2,0.1,0.5,0.1,1,0.1c0.2,0.1,0.4,0.1,0.8,0.1c0.3,0,0.6,0,0.8,0
			c0.4-0.1,0.9-0.2,1.3-0.2c0.4-0.1,0.9-0.2,1.3-0.3c1.3-0.6,2.4-1.3,3.2-2.2c0.8-0.9,1.5-2.1,2.1-3.4c0.2-0.5,0.4-1,0.5-1.5
			c0.1-0.5,0.2-1.1,0.3-1.6c0.1-0.3,0.1-0.5,0-0.8c0-0.2,0-0.5,0.1-0.8c0.1-0.2,0.1-0.3,0.1-0.6c0-0.2,0-0.5,0-0.7V207.3z"/>
		<path class="st0" d="M435.3,171c0.4,0.4,0.6,1.1,0.6,1.9c0,0.9,0,1.7,0,2.5c0,0.7,0,1.4,0,2.2c0,0.7-0.2,1.3-0.6,1.5
			c-0.3,0.3-0.7,0.4-1.2,0.5c-0.5,0.1-1.1,0.1-1.6,0.1H428c-0.6,0-1.1,0-1.6-0.1c-0.5-0.1-0.8-0.2-1.2-0.5c-0.2-0.2-0.4-0.5-0.4-0.9
			c-0.1-0.5-0.1-1-0.2-1.5c0-0.6,0-1.1,0-1.7c0-0.6,0-1.1,0-1.5c0-0.4,0-0.8,0-1.2c0-0.3,0.1-0.7,0.3-0.9c0.1-0.2,0.3-0.4,0.4-0.5
			c0.2-0.1,0.4-0.2,0.6-0.3c0.1,0,0.2,0,0.4,0c0.2,0,0.3,0,0.4,0h5.8c0.5,0,1,0,1.5,0.1C434.7,170.6,435,170.8,435.3,171z
			 M435.9,223.1c0,1.1,0,2-0.1,2.7c-0.1,0.7-0.5,1.3-1.4,1.5c-0.3,0.1-0.7,0.1-1,0.1c-0.4,0-0.8,0-1.2,0h-4.5c-0.5,0-0.9,0-1.4-0.1
			c-0.5-0.1-0.8-0.2-1-0.5c-0.3-0.4-0.5-0.8-0.5-1.4c0-0.6,0-1.2,0-1.8v-33.8c0-0.5,0-1.1,0-1.6c0-0.5,0.1-1,0.3-1.3
			c0.3-0.4,0.8-0.6,1.4-0.7c0.1-0.1,0.3-0.1,0.4,0c0.2,0,0.3,0,0.4,0h4c0.3,0,0.7,0,1.1,0c0.4,0,0.7,0,1,0h0.6
			c0.3,0.1,0.6,0.2,0.9,0.2c0.3,0.1,0.5,0.2,0.6,0.5c0.2,0.3,0.3,0.6,0.4,1.1c0,0.5,0,1,0,1.5V223.1z"/>
		<path class="st0" d="M447,186.3h6c0.6,0,1.1,0,1.6,0.1c0.5,0.1,0.8,0.2,1,0.6c0.3,0.3,0.4,0.8,0.5,1.3c0.1,0.6,0.1,1.1,0.1,1.7
			v5.6v11.9c0,1.9,0.1,3.7,0.2,5.4c0.2,1.7,0.6,3.1,1.4,4.2c0.7,1.1,1.9,1.9,3.6,2.4c0.3,0.1,0.5,0.1,0.7,0.1c0.2,0,0.4,0,0.7,0.1
			c0.3,0.1,0.6,0.1,0.9,0.1s0.6,0,0.7-0.1c0.3-0.1,0.5-0.1,0.7-0.1c0.2,0.1,0.4,0,0.6-0.1c1.1-0.3,2-0.6,2.6-1
			c1-0.6,1.7-1.3,2.3-2.3c0.6-0.9,1-2,1.2-3.1c0.2-1.1,0.4-2.4,0.4-3.8c0.1-1.4,0.1-2.9,0.1-4.4v-9.7V190c0-0.5,0-1,0-1.5
			c0-0.5,0.1-0.9,0.3-1.2c0.3-0.5,0.7-0.8,1.2-0.8c0.5-0.1,1.2-0.1,1.9-0.1h4.2c0.5,0,1,0,1.5,0c0.5,0,0.9,0.1,1.2,0.3
			c0.4,0.3,0.7,0.7,0.7,1.2c0.1,0.5,0.1,1.1,0.1,1.8v6.1v22.5v5.7c0,0.5,0,1.1,0,1.6c0,0.5-0.1,0.9-0.3,1.2
			c-0.3,0.4-0.7,0.7-1.2,0.7c-0.5,0.1-1.1,0.1-1.7,0.1H476c-0.6,0-1.1,0-1.6-0.1c-0.5-0.1-0.8-0.3-1.1-0.6c-0.1-0.2-0.2-0.4-0.3-0.7
			c-0.1-0.3-0.2-0.6-0.2-1c-0.1-0.3-0.2-0.6-0.3-0.9c-0.1-0.3-0.3-0.4-0.5-0.5c-0.1-0.1-0.2-0.1-0.4-0.1c-0.2,0.1-0.3,0.1-0.4,0.2
			c-0.4,0.2-0.7,0.5-1,0.7c-0.3,0.3-0.6,0.5-0.9,0.7c-0.2,0.2-0.4,0.3-0.6,0.5c-0.2,0.2-0.4,0.4-0.7,0.5c-1.2,0.7-2.7,1.3-4.3,1.8
			c-0.4,0.1-0.7,0.2-1.1,0.2c-0.4,0-0.8,0.1-1.2,0.2c-0.2,0.1-0.4,0.1-0.7,0c-0.2,0-0.5,0-0.7,0c-0.2,0.1-0.5,0.1-1,0
			c-0.5,0-0.8-0.1-1-0.1c-0.3,0-0.5,0-0.8,0c-0.3,0-0.5,0-0.8,0c-0.6-0.2-1.3-0.3-1.8-0.4c-0.6-0.1-1.2-0.3-1.8-0.5
			c-0.3-0.1-0.5-0.2-0.7-0.3c-0.2-0.1-0.4-0.2-0.7-0.3c-1.9-1-3.4-2.4-4.5-4.2c-0.7-1.1-1.2-2.5-1.5-4c-0.3-1.6-0.5-3.3-0.6-5
			c-0.1-1.8-0.1-3.6-0.1-5.5c0-1.9,0-3.8,0-5.6v-10.9c0-0.7,0-1.5,0-2.4c0-0.9,0.1-1.6,0.4-2c0.2-0.3,0.5-0.5,1-0.7
			C446.6,186.4,446.8,186.4,447,186.3z"/>
		<path class="st0" d="M516,185.2c2-0.1,3.7,0.2,5.2,0.6c1.5,0.5,2.8,1.1,3.9,2c0.4,0.3,0.8,0.7,1.2,1.1c0.3,0.4,0.7,0.9,1.2,1.3
			c0.1,0.1,0.3,0.3,0.5,0.4c0.2,0.2,0.5,0.2,0.8,0.1c0.6-0.2,1.1-0.5,1.7-1.2c0.5-0.6,1-1.1,1.5-1.4c0.7-0.6,1.5-1.1,2.4-1.5
			c0.9-0.4,1.8-0.8,2.9-1.2c0.4-0.1,0.9-0.2,1.6-0.3c0.6-0.1,1.3-0.1,1.9-0.2c0.7,0,1.3,0,1.9,0c0.6,0.1,1.2,0.1,1.6,0.2
			c0.3,0.1,0.5,0.1,0.7,0.1c0.2,0,0.5,0.1,0.7,0.2c0.7,0.2,1.5,0.4,2.2,0.6c0.7,0.2,1.3,0.5,1.9,0.9c2.2,1.4,3.9,3.4,5,6.1
			c0.2,0.5,0.4,1,0.5,1.5c0.1,0.5,0.2,1,0.3,1.5c0.1,0.4,0.1,0.7,0.1,1c0,0.3,0.1,0.6,0.1,1v0.8c0.1,0.3,0.1,0.7,0,1.1
			c0,0.4,0,0.8,0,1.2v4.6v15.6c0,0.4,0,0.9,0,1.5c0,0.6,0,1.1,0,1.6c0,0.5-0.1,1-0.2,1.4c-0.1,0.5-0.3,0.8-0.5,0.9
			c-0.3,0.3-0.7,0.4-1.2,0.4c-0.5,0-1.1,0-1.6,0H548c-0.7,0-1.4-0.1-2-0.2c-0.6-0.1-1-0.4-1.2-0.9c-0.2-0.4-0.2-0.8-0.2-1.2
			c0-0.5,0-0.9,0-1.3v-4.5v-10.8v-3.4c0-0.3,0-0.6,0-0.9c0-0.3,0-0.6-0.1-0.9v-0.6c0-0.3,0-0.6,0-1c0-0.3,0-0.6-0.1-1
			c-0.1-0.2-0.1-0.4-0.1-0.7c0-0.2,0-0.5-0.1-0.7c-0.2-0.8-0.4-1.5-0.7-2.1c-0.2-0.6-0.6-1.2-1.1-1.6c-0.7-0.7-1.7-1.3-2.7-1.6
			c-0.2-0.1-0.4-0.1-0.6,0c-0.2,0-0.3,0-0.6-0.1c-0.2-0.1-0.5-0.1-0.8-0.1c-0.3,0-0.6,0-0.8,0c-0.3,0.1-0.6,0.2-1,0.2
			s-0.6,0.1-1,0.2c-1.5,0.5-2.7,1.3-3.4,2.4c-0.9,1.2-1.5,2.8-1.6,4.6c-0.2,1.8-0.3,3.9-0.3,6v10.6v5.9c0,0.5,0,1.1,0,1.6
			c0,0.5-0.1,1-0.4,1.3c-0.3,0.4-0.7,0.6-1.2,0.7c-0.5,0.1-1.1,0.1-1.7,0.1h-4.3c-0.5,0-0.9,0-1.4,0c-0.5,0-0.8-0.1-1.2-0.2
			c-0.5-0.3-0.8-0.7-0.9-1.3s-0.1-1.3-0.1-2v-6.8v-12.6c0-1.5-0.1-3-0.2-4.4c-0.1-1.4-0.5-2.5-1-3.4c-0.4-0.7-1-1.3-1.6-1.7
			c-0.7-0.4-1.5-0.7-2.4-1c-0.2-0.1-0.4-0.1-0.6,0c-0.2,0-0.5,0-0.7,0c-0.6-0.1-1.1-0.1-1.7,0.2c-0.1,0-0.2,0-0.3,0
			c-0.1,0-0.2,0-0.3,0c-0.9,0.3-1.7,0.7-2.5,1.4c-0.9,0.6-1.5,1.4-2,2.2c-0.5,0.8-0.8,1.8-1,2.8c-0.2,1-0.3,2.2-0.3,3.4
			c0,1.2,0,2.6,0,4v10.8v4.9c0,0.5,0,1,0,1.4c0,0.5-0.1,0.9-0.2,1.3c-0.2,0.5-0.6,0.8-1.2,0.9c-0.6,0.1-1.3,0.2-2,0.2h-4.2
			c-0.5,0-1.1,0-1.6,0c-0.5,0-0.9-0.1-1.2-0.4c-0.5-0.3-0.7-0.8-0.8-1.5c0-0.7,0-1.5,0-2.3V214v-19.5v-4.8c0-0.6,0-1.1,0-1.6
			c0-0.5,0.1-0.8,0.4-1.2c0.3-0.3,0.7-0.5,1.3-0.6h0.5c0.3-0.1,0.5-0.1,0.8-0.1c0.3,0,0.6,0,0.8,0h3.3c0.4,0,0.8,0,1.2,0
			c0.4,0,0.8,0.1,1.1,0.2c0.4,0.2,0.7,0.4,0.8,0.8c0.1,0.4,0.3,0.8,0.4,1.3c0.1,0.2,0.1,0.3,0,0.4c0,0.1,0,0.3,0.1,0.4
			c0.1,0.2,0.1,0.3,0.2,0.4c0.1,0.1,0.2,0.2,0.3,0.3c0.6,0.1,1.2-0.1,1.6-0.6c0.4-0.5,0.8-0.8,1.2-1.1c0.7-0.5,1.5-1,2.3-1.4
			c0.8-0.4,1.6-0.8,2.5-1c0.5-0.2,1-0.3,1.4-0.3c0.5-0.1,1-0.1,1.5-0.2c0.2-0.1,0.4-0.1,0.7,0C515.6,185.2,515.8,185.2,516,185.2z"
			/>
	</g>
	<g>
		<path class="st1" d="M6.5,70.9"/>
		<path class="st0" d="M67.3,0.9L0.9,67.3C0.3,67.9,0,68.7,0,69.6v205.3c0,1.7,1.4,3.1,3.1,3.1h601.2c1.7,0,3.1-1.4,3.1-3.1V3.1
			c0-1.7-1.4-3.1-3.1-3.1H69.6C68.7,0,67.9,0.3,67.3,0.9z M64.5,26v36.9c0,0.9-0.7,1.6-1.6,1.6H26c-1.4,0-2.1-1.7-1.1-2.7l36.9-36.9
			C62.8,23.9,64.5,24.6,64.5,26z M591.3,265H16.1c-1.7,0-3.1-1.4-3.1-3.1V80.6c0-1.7,1.4-3.1,3.1-3.1h58.2c1.7,0,3.1-1.4,3.1-3.1
			V16.1c0-1.7,1.4-3.1,3.1-3.1h510.7c1.7,0,3.1,1.4,3.1,3.1v245.7C594.5,263.6,593,265,591.3,265z"/>
	</g>
</g>
</svg>
